<svg width="16" height="16" viewBox="0 0 16 16" fill="none" xmlns="http://www.w3.org/2000/svg">
<path d="M8.00008 1.3335C5.05341 1.3335 2.66675 1.66683 2.66675 4.00016V10.3335C2.66675 11.6202 3.71341 12.6668 5.00008 12.6668L4.00008 13.6668V14.0002H12.0001V13.6668L11.0001 12.6668C12.2867 12.6668 13.3334 11.6202 13.3334 10.3335V4.00016C13.3334 1.66683 10.9467 1.3335 8.00008 1.3335ZM5.00008 11.3335C4.44675 11.3335 4.00008 10.8868 4.00008 10.3335C4.00008 9.78016 4.44675 9.3335 5.00008 9.3335C5.55341 9.3335 6.00008 9.78016 6.00008 10.3335C6.00008 10.8868 5.55341 11.3335 5.00008 11.3335ZM7.33342 7.3335H4.00008V4.00016H7.33342V7.3335ZM11.0001 11.3335C10.4467 11.3335 10.0001 10.8868 10.0001 10.3335C10.0001 9.78016 10.4467 9.3335 11.0001 9.3335C11.5534 9.3335 12.0001 9.78016 12.0001 10.3335C12.0001 10.8868 11.5534 11.3335 11.0001 11.3335ZM12.0001 7.3335H8.66675V4.00016H12.0001V7.3335Z" fill="#BBBCBB"/>
</svg>
