<svg width="61" height="64" viewBox="0 0 61 64" fill="none" xmlns="http://www.w3.org/2000/svg">
<g filter="url(#filter0_dd_847_2548)">
<rect x="13" y="16" width="32" height="32" rx="10" fill="#383938"/>
<rect x="13.5" y="16.5" width="31" height="31" rx="9.5" stroke="white"/>
<path d="M28.0563 35.8313H24.1188C23.725 35.8313 23.3312 35.4376 23.3312 35.0438C23.3312 34.6501 23.725 34.2563 24.1188 34.2563H28.0563L28.8438 32.9438L24.5125 27.9563H23.0687C22.675 27.9563 22.2812 27.5626 22.2812 27.1688C22.2812 26.7751 22.675 26.3813 23.0687 26.3813H26.7438C27.1375 26.3813 27.5312 26.7751 27.5312 27.1688C27.5312 27.5626 27.1375 27.9563 26.7438 27.9563H26.6125L29.6313 31.6313L31.8625 27.6938L31.075 24.8063C31.075 24.5438 31.075 24.2813 31.075 24.1501C31.2062 24.0188 31.4688 23.8876 31.7312 23.8876C33.0437 23.8876 36.4562 23.6251 37.2437 26.3813C37.2437 26.7751 37.1125 27.1688 36.7188 27.3001C36.325 27.3001 35.9313 27.1688 35.8 26.7751C35.5375 25.7251 34.225 25.4626 32.9125 25.3313L35.5375 35.0438C35.5375 35.4376 35.5375 35.8313 35.0125 35.9626C34.6187 35.9626 34.225 35.9626 34.0938 35.4376L32.5188 29.7938L29.3688 35.3063C29.2375 35.5688 28.975 35.8313 28.7125 35.9626C28.45 36.0938 28.1875 36.2251 27.925 36.2251L28.0563 35.8313Z" fill="white"/>
<path d="M24.1188 39.3751C21.625 39.3751 19.6562 37.4063 19.6562 34.9126C19.6562 32.4188 21.625 30.4501 24.1188 30.4501C26.6125 30.4501 28.5813 32.4188 28.5813 34.9126C28.5813 37.4063 26.6125 39.3751 24.1188 39.3751ZM24.1188 32.1563C22.5438 32.1563 21.2313 33.4688 21.2313 35.0438C21.2313 36.6188 22.5438 37.9313 24.1188 37.9313C25.6938 37.9313 27.0062 36.6188 27.0062 35.0438C27.0062 33.4688 25.6938 32.1563 24.1188 32.1563Z" fill="white"/>
<path d="M34.8813 39.3751C32.3875 39.3751 30.4187 37.4063 30.4187 34.9126C30.4187 32.4188 32.3875 30.4501 34.8813 30.4501C37.375 30.4501 39.3438 32.4188 39.3438 34.9126C39.3438 37.4063 37.375 39.3751 34.8813 39.3751ZM34.8813 32.1563C33.3063 32.1563 31.9937 33.4688 31.9937 35.0438C31.9937 36.6188 33.3063 37.9313 34.8813 37.9313C36.4563 37.9313 37.7688 36.6188 37.7688 35.0438C37.7688 33.4688 36.4563 32.1563 34.8813 32.1563Z" fill="white"/>
</g>
<defs>
<filter id="filter0_dd_847_2548" x="-3" y="0" width="64" height="64" filterUnits="userSpaceOnUse" color-interpolation-filters="sRGB">
<feFlood flood-opacity="0" result="BackgroundImageFix"/>
<feColorMatrix in="SourceAlpha" type="matrix" values="0 0 0 0 0 0 0 0 0 0 0 0 0 0 0 0 0 0 127 0" result="hardAlpha"/>
<feOffset/>
<feGaussianBlur stdDeviation="8"/>
<feComposite in2="hardAlpha" operator="out"/>
<feColorMatrix type="matrix" values="0 0 0 0 0.909804 0 0 0 0 0.909804 0 0 0 0 0.909804 0 0 0 0.3 0"/>
<feBlend mode="normal" in2="BackgroundImageFix" result="effect1_dropShadow_847_2548"/>
<feColorMatrix in="SourceAlpha" type="matrix" values="0 0 0 0 0 0 0 0 0 0 0 0 0 0 0 0 0 0 127 0" result="hardAlpha"/>
<feOffset dy="2"/>
<feGaussianBlur stdDeviation="2"/>
<feComposite in2="hardAlpha" operator="out"/>
<feColorMatrix type="matrix" values="0 0 0 0 0.219608 0 0 0 0 0.223529 0 0 0 0 0.219608 0 0 0 0.2 0"/>
<feBlend mode="normal" in2="effect1_dropShadow_847_2548" result="effect2_dropShadow_847_2548"/>
<feBlend mode="normal" in="SourceGraphic" in2="effect2_dropShadow_847_2548" result="shape"/>
</filter>
</defs>
</svg>
