<svg width="56" height="56" viewBox="0 0 56 56" fill="none" xmlns="http://www.w3.org/2000/svg">
<g filter="url(#filter0_dd_843_177)">
<rect x="16" y="16" width="24" height="24" rx="6" fill="white"/>
<rect x="16.5" y="16.5" width="23" height="23" rx="5.5" stroke="#383938"/>
<path d="M27.9998 21.3334C25.0532 21.3334 22.6665 21.6667 22.6665 24V30.3334C22.6665 31.62 23.7132 32.6667 24.9998 32.6667L23.9998 33.6667V34H31.9998V33.6667L30.9998 32.6667C32.2865 32.6667 33.3332 31.62 33.3332 30.3334V24C33.3332 21.6667 30.9465 21.3334 27.9998 21.3334ZM24.9998 31.3334C24.4465 31.3334 23.9998 30.8867 23.9998 30.3334C23.9998 29.78 24.4465 29.3334 24.9998 29.3334C25.5532 29.3334 25.9998 29.78 25.9998 30.3334C25.9998 30.8867 25.5532 31.3334 24.9998 31.3334ZM27.3332 27.3334H23.9998V24H27.3332V27.3334ZM30.9998 31.3334C30.4465 31.3334 29.9998 30.8867 29.9998 30.3334C29.9998 29.78 30.4465 29.3334 30.9998 29.3334C31.5532 29.3334 31.9998 29.78 31.9998 30.3334C31.9998 30.8867 31.5532 31.3334 30.9998 31.3334ZM31.9998 27.3334H28.6665V24H31.9998V27.3334Z" fill="#383938"/>
</g>
<defs>
<filter id="filter0_dd_843_177" x="0" y="0" width="56" height="56" filterUnits="userSpaceOnUse" color-interpolation-filters="sRGB">
<feFlood flood-opacity="0" result="BackgroundImageFix"/>
<feColorMatrix in="SourceAlpha" type="matrix" values="0 0 0 0 0 0 0 0 0 0 0 0 0 0 0 0 0 0 127 0" result="hardAlpha"/>
<feOffset/>
<feGaussianBlur stdDeviation="8"/>
<feComposite in2="hardAlpha" operator="out"/>
<feColorMatrix type="matrix" values="0 0 0 0 0.909804 0 0 0 0 0.909804 0 0 0 0 0.909804 0 0 0 0.3 0"/>
<feBlend mode="normal" in2="BackgroundImageFix" result="effect1_dropShadow_843_177"/>
<feColorMatrix in="SourceAlpha" type="matrix" values="0 0 0 0 0 0 0 0 0 0 0 0 0 0 0 0 0 0 127 0" result="hardAlpha"/>
<feOffset dy="2"/>
<feGaussianBlur stdDeviation="2"/>
<feComposite in2="hardAlpha" operator="out"/>
<feColorMatrix type="matrix" values="0 0 0 0 0.219608 0 0 0 0 0.223529 0 0 0 0 0.219608 0 0 0 0.2 0"/>
<feBlend mode="normal" in2="effect1_dropShadow_843_177" result="effect2_dropShadow_843_177"/>
<feBlend mode="normal" in="SourceGraphic" in2="effect2_dropShadow_843_177" result="shape"/>
</filter>
</defs>
</svg>
