<svg width="40" height="40" viewBox="0 0 40 40" fill="none" xmlns="http://www.w3.org/2000/svg">
<g clip-path="url(#clip0_342_177)">
<path d="M13.1319 19.413C16.5732 19.413 19.3629 16.6233 19.3629 13.182C19.3629 9.74076 16.5732 6.95105 13.1319 6.95105C9.69059 6.95105 6.90088 9.74076 6.90088 13.182C6.90088 16.6233 9.69059 19.413 13.1319 19.413Z" fill="#8BBDFF"/>
<path d="M13.132 21.3191C4.758 21.3191 1.5 27.0291 1.5 29.6851C1.5 32.3411 8.434 33.0481 13.132 33.0481C17.83 33.0481 24.764 32.3411 24.764 29.6851C24.764 27.0291 21.507 21.3191 13.132 21.3191Z" fill="#8BBDFF"/>
<path d="M26.8677 19.413C30.309 19.413 33.0987 16.6233 33.0987 13.182C33.0987 9.74076 30.309 6.95105 26.8677 6.95105C23.4264 6.95105 20.6367 9.74076 20.6367 13.182C20.6367 16.6233 23.4264 19.413 26.8677 19.413Z" fill="#3180F3"/>
<path d="M26.8678 21.3191C18.4938 21.3191 15.2358 27.0291 15.2358 29.6851C15.2358 32.3411 22.1698 33.0481 26.8678 33.0481C31.5658 33.0481 38.4998 32.3411 38.4998 29.6851C38.4998 27.0291 35.2428 21.3191 26.8678 21.3191Z" fill="#3180F3"/>
</g>
<defs>
<clipPath id="clip0_342_177">
<rect width="40" height="40" fill="white"/>
</clipPath>
</defs>
</svg>
