<svg width="40" height="40" viewBox="0 0 40 40" fill="none" xmlns="http://www.w3.org/2000/svg">
<g clip-path="url(#clip0_338_326)">
<path d="M16.6099 33.29C16.7959 32.579 18.2849 30.805 19.0319 29.947C19.2069 29.745 19.5359 29.831 19.5899 30.093C19.8209 31.206 20.2519 33.482 20.0659 34.194C19.8159 35.148 18.8409 35.72 17.8859 35.47C16.9319 35.22 16.3599 34.245 16.6099 33.29Z" fill="#88C5FF"/>
<path d="M24.6451 33.29C24.8311 32.579 26.3201 30.805 27.0671 29.947C27.2421 29.745 27.5711 29.831 27.6251 30.093C27.8561 31.206 28.2871 33.482 28.1011 34.194C27.8511 35.148 26.8761 35.72 25.9211 35.47C24.9671 35.22 24.3951 34.245 24.6451 33.29Z" fill="#88C5FF"/>
<path d="M8.57479 33.29C8.76079 32.579 10.2498 30.805 10.9968 29.947C11.1718 29.745 11.5008 29.831 11.5548 30.093C11.7858 31.206 12.2168 33.482 12.0308 34.194C11.7808 35.148 10.8058 35.72 9.85079 35.47C8.89679 35.22 8.32479 34.245 8.57479 33.29Z" fill="#88C5FF"/>
<path d="M30.43 27.282H9.35596V16.364L30.15 17.767L30.43 27.282Z" fill="#E5E8EB"/>
<path d="M22.7329 20.711C27.5416 20.711 31.4399 16.8127 31.4399 12.004C31.4399 7.19525 27.5416 3.297 22.7329 3.297C17.9241 3.297 14.0259 7.19525 14.0259 12.004C14.0259 16.8127 17.9241 20.711 22.7329 20.711Z" fill="#E5E8EB"/>
<path d="M30.1159 27.282C34.194 27.282 37.4999 23.9761 37.4999 19.898C37.4999 15.82 34.194 12.514 30.1159 12.514C26.0379 12.514 22.7319 15.82 22.7319 19.898C22.7319 23.9761 26.0379 27.282 30.1159 27.282Z" fill="#E5E8EB"/>
<path d="M9.356 27.2819C13.1425 27.2819 16.212 24.2124 16.212 20.4259C16.212 16.6395 13.1425 13.5699 9.356 13.5699C5.56954 13.5699 2.5 16.6395 2.5 20.4259C2.5 24.2124 5.56954 27.2819 9.356 27.2819Z" fill="#E5E8EB"/>
<path d="M14.0261 18.8781C17.1255 18.8781 19.6381 16.3655 19.6381 13.2661C19.6381 10.1666 17.1255 7.65405 14.0261 7.65405C10.9266 7.65405 8.41406 10.1666 8.41406 13.2661C8.41406 16.3655 10.9266 18.8781 14.0261 18.8781Z" fill="#E5E8EB"/>
</g>
<defs>
<clipPath id="clip0_338_326">
<rect width="40" height="40" fill="white"/>
</clipPath>
</defs>
</svg>
